<?xml version="1.0" encoding="utf-8"?>
<!-- Generator: Adobe Illustrator 27.6.1, SVG Export Plug-In . SVG Version: 6.00 Build 0)  -->
<svg version="1.1" id="Layer_1" xmlns="http://www.w3.org/2000/svg" xmlns:xlink="http://www.w3.org/1999/xlink" x="0px" y="0px"
	 viewBox="0 0 326 255.1" style="enable-background:new 0 0 326 255.1;" xml:space="preserve">
<style type="text/css">
	
		.st0{clip-path:url(#SVGID_00000116936331941893930660000017937279922158122155_);fill:none;stroke:#000000;stroke-width:0.7848;stroke-linejoin:round;stroke-miterlimit:10;}
	
		.st1{clip-path:url(#SVGID_00000087412929516798803020000004295660705441200523_);fill:none;stroke:#000000;stroke-width:0.7848;stroke-linejoin:round;stroke-miterlimit:10;}
	
		.st2{clip-path:url(#SVGID_00000102506518297751716330000005684019031983336096_);fill:none;stroke:#000000;stroke-width:0.7848;stroke-linejoin:round;stroke-miterlimit:10;}
	
		.st3{clip-path:url(#SVGID_00000038382491694970654910000001750740726695300752_);fill:none;stroke:#000000;stroke-width:0.7848;stroke-linejoin:round;stroke-miterlimit:10;}
	
		.st4{clip-path:url(#SVGID_00000002366393038300142110000004245326177487243428_);fill:none;stroke:#000000;stroke-width:1.5695;stroke-linecap:round;stroke-linejoin:round;stroke-miterlimit:10;}
	.st5{clip-path:url(#SVGID_00000012463387907083411410000014924637226542298278_);}
	.st6{font-family:'ArialMT';}
	.st7{font-size:9.4173px;}
	.st8{fill:none;}
	.st9{clip-path:url(#SVGID_00000152237956300850888830000013901309146143740586_);}
	.st10{clip-path:url(#SVGID_00000027597880926629599850000007455856385812454818_);}
	.st11{clip-path:url(#SVGID_00000089556401529166190110000000791206630456293509_);}
	.st12{clip-path:url(#SVGID_00000054232292328133302720000011472519736058100142_);}
	.st13{clip-path:url(#SVGID_00000183932434757010363870000008698917224640425638_);}
	.st14{clip-path:url(#SVGID_00000080916046827710468810000007206774036852743074_);}
	.st15{clip-path:url(#SVGID_00000066487779810167856960000017625834560472502160_);}
	.st16{clip-path:url(#SVGID_00000166652438947981762630000014871967728144620961_);}
	.st17{clip-path:url(#SVGID_00000085237464709273573700000018295008978149788048_);}
	.st18{clip-path:url(#SVGID_00000162350810153540663630000007552525810760297131_);}
	.st19{clip-path:url(#SVGID_00000176747628784301022710000016852544724229668513_);}
	.st20{clip-path:url(#SVGID_00000003077724857557678120000011380246850298335895_);}
	.st21{font-size:11.51px;}
	.st22{clip-path:url(#SVGID_00000096031602769337851360000000707867619980468639_);}
</style>
<g>
	<defs>
		<rect id="SVGID_1_" x="-6" y="-0.5" width="340.1" height="259.5"/>
	</defs>
	<clipPath id="SVGID_00000104677543865443234540000001468798288716917183_">
		<use xlink:href="#SVGID_1_"  style="overflow:visible;"/>
	</clipPath>
	
		<line style="clip-path:url(#SVGID_00000104677543865443234540000001468798288716917183_);fill:none;stroke:#000000;stroke-width:0.7848;stroke-linejoin:round;stroke-miterlimit:10;" x1="45.3" y1="214.5" x2="45.3" y2="11"/>
</g>
<g>
	<defs>
		<rect id="SVGID_00000011730227722262136740000017178760725556285884_" x="-6" y="-0.5" width="340.1" height="259.5"/>
	</defs>
	<clipPath id="SVGID_00000010294365703852121680000013866751699358975652_">
		<use xlink:href="#SVGID_00000011730227722262136740000017178760725556285884_"  style="overflow:visible;"/>
	</clipPath>
	
		<path style="clip-path:url(#SVGID_00000010294365703852121680000013866751699358975652_);fill:none;stroke:#000000;stroke-width:0.7848;stroke-linejoin:round;stroke-miterlimit:10;" d="
		M42.1,29.8h3.1 M42.1,66.5h3.1 M42.1,103.6h3.1 M42.1,140.8h3.1 M42.1,177.4h3.1 M42.1,214.5h3.1 M43.2,11h2.1 M43.2,29.8h2.1
		 M43.2,48.2h2.1 M43.2,66.5h2.1 M43.2,85.3h2.1 M43.2,103.6h2.1 M43.2,121.9h2.1 M43.2,140.8h2.1 M43.2,159.1h2.1 M43.2,177.4h2.1
		 M43.2,195.7h2.1 M43.2,214.5h2.1"/>
</g>
<g>
	<defs>
		<rect id="SVGID_00000028294556321687667040000016932272605085585286_" x="-6" y="-0.5" width="340.1" height="259.5"/>
	</defs>
	<clipPath id="SVGID_00000008859271618621115800000015571909813957974452_">
		<use xlink:href="#SVGID_00000028294556321687667040000016932272605085585286_"  style="overflow:visible;"/>
	</clipPath>
	
		<line style="clip-path:url(#SVGID_00000008859271618621115800000015571909813957974452_);fill:none;stroke:#000000;stroke-width:0.7848;stroke-linejoin:round;stroke-miterlimit:10;" x1="45.3" y1="214.5" x2="315.8" y2="214.5"/>
</g>
<g>
	<defs>
		<rect id="SVGID_00000043451759811805562580000010756975363021478545_" x="-6" y="-0.5" width="340.1" height="259.5"/>
	</defs>
	<clipPath id="SVGID_00000163777251866463009790000007686356606317944759_">
		<use xlink:href="#SVGID_00000043451759811805562580000010756975363021478545_"  style="overflow:visible;"/>
	</clipPath>
	
		<path style="clip-path:url(#SVGID_00000163777251866463009790000007686356606317944759_);fill:none;stroke:#000000;stroke-width:0.7848;stroke-linejoin:round;stroke-miterlimit:10;" d="
		M294.8,214.5v2.6 M253.5,214.5v2.6 M211.6,214.5v2.6 M169.8,214.5v2.6 M128.5,214.5v2.6 M86.6,214.5v2.6 M45.3,214.5v2.6
		 M315.8,214.5v2.1 M294.8,214.5v2.1 M273.9,214.5v2.1 M253.5,214.5v2.1 M232.6,214.5v2.1 M211.6,214.5v2.1 M190.7,214.5v2.1
		 M169.8,214.5v2.1 M149.4,214.5v2.1 M128.5,214.5v2.1 M107.5,214.5v2.1 M86.6,214.5v2.1 M66.2,214.5v2.1 M45.3,214.5v2.1"/>
</g>
<g>
	<defs>
		<rect id="SVGID_00000090285100467525316660000003688404830032046262_" x="44.2" y="11" width="272.1" height="204"/>
	</defs>
	<clipPath id="SVGID_00000125578125091150358440000015050526329274113206_">
		<use xlink:href="#SVGID_00000090285100467525316660000003688404830032046262_"  style="overflow:visible;"/>
	</clipPath>
	
		<path style="clip-path:url(#SVGID_00000125578125091150358440000015050526329274113206_);fill:none;stroke:#000000;stroke-width:1.5695;stroke-linecap:round;stroke-linejoin:round;stroke-miterlimit:10;" d="
		M65.9,175.9c0.3,6.5,0.6,17,0.8,19.4c0.1,1.2,0.7-2.3,0.8-4.6c0.3-4.9,0.6-14.9,0.8-24.5c0.3-9.6,0.6-22.5,0.8-33.2
		c0.3-10.7,0.6-22.6,0.8-30.9c0.3-8.4,0.6-14.7,0.8-19.2c0.2-3.9,0.6-7,0.8-7.8c0.3-0.9,0.6,1.8,0.8,2.3c0.1,0.2,0.7,1,0.8,0.5
		c0.3-1,0.6-3.6,0.8-6.7c0.3-3.1,0.6-8.1,0.8-11.8c0.3-3.7,0.6-8.4,0.8-10.3c0.1-0.6,0.7-0.9,0.8-1c0.1-0.1,0.7-0.6,0.8-0.2
		c0.2,0.7,0.6,2.7,0.8,5.4c0.3,3.6,0.6,9.3,0.8,16.1c0.3,6.8,0.6,17.9,0.8,24.9c0.3,7,0.6,15,0.8,17c0.2,1.6,0.6-2.3,0.8-4.6
		c0.3-2.9,0.6-10.3,0.8-13c0.2-1.8,0.7-3.9,0.8-3.6c0.3,0.5,0.6,4.8,0.8,6.5c0.3,1.7,0.6,5.3,0.8,3.9c0.3-1.3,0.6-6.4,0.8-12
		c0.3-5.6,0.6-15.4,0.8-21.7c0.3-6.3,0.6-12.1,0.8-16.1c0.3-3.9,0.6-5.9,0.8-7.7c0.3-1.8,0.6-2.7,0.8-3.6c0.3-0.9,0.6-1.5,0.8-1.9
		c0.3-0.4,0.6-0.4,0.8-0.4c0.3,0,0.6,0.2,0.8,0.3c0.3,0.1,0.6,0.3,0.8,0.5c0.3,0.1,0.6,0.3,0.8,0.3c0.3,0.1,0.6,0,0.8,0.1
		c0.3,0,0.6,0,0.8,0.2c0.3,0.1,0.6,0.5,0.8,0.6c0.3,0.1,0.6,0,0.8-0.1c0.3,0,0.6-0.1,0.8-0.2c0.3-0.1,0.6-0.3,0.8-0.5
		c0.3-0.1,0.6-0.4,0.8-0.4c0.3,0,0.6,0.2,0.8,0.4c0.3,0.1,0.6,0.3,0.8,0.4c0.3,0.1,0.6,0.1,0.8,0.2c0.3,0,0.6,0,0.8,0
		c0.3,0,0.6,0,0.8-0.1c0.3-0.1,0.6-0.3,0.8-0.4c0.3-0.1,0.6-0.4,0.8-0.3c0.3,0,0.6,0.4,0.8,0.6c0.3,0.2,0.6,0.5,0.8,0.6
		c0.3,0.1,0.6,0.1,0.8,0.1c0.3,0,0.6-0.1,0.8-0.3c0.3-0.1,0.6-0.4,0.8-0.5c0.3-0.1,0.6-0.2,0.8-0.1c0.3,0.1,0.6,0.3,0.8,0.4
		c0.3,0.1,0.6,0.2,0.8,0.1c0.3,0,0.6-0.3,0.8-0.4c0.3-0.1,0.6-0.2,0.8-0.3c0.3,0,0.6,0.1,0.8,0.2c0.3,0.1,0.6,0,0.8,0.1
		c0.3,0.1,0.6,0.4,0.8,0.4c0.3,0,0.6-0.2,0.8-0.2c0.3,0,0.6,0.3,0.8,0.3c0.3,0,0.6-0.2,0.8-0.2c0.3-0.1,0.6-0.2,0.8-0.3
		c0.3-0.1,0.6,0,0.8-0.1c0.3-0.1,0.6-0.1,0.8-0.3c0.3-0.1,0.6-0.4,0.8-0.5c0.3-0.1,0.6-0.2,0.8-0.2c0.3,0,0.6,0.2,0.8,0.1
		c0.3-0.1,0.6-0.4,0.8-0.5c0.3,0,0.6,0.2,0.8,0.2c0.3,0,0.6,0.1,0.8,0c0.3-0.1,0.6-0.4,0.8-0.5c0.3-0.1,0.6-0.3,0.8-0.3
		c0.3,0,0.6,0.1,0.8,0.1c0.3,0,0.6,0.1,0.8,0.1c0.3,0,0.6-0.1,0.8-0.1c0.3,0,0.6,0.1,0.8,0.1c0.3,0,0.6-0.2,0.8-0.3
		c0.3-0.2,0.6-0.5,0.8-0.6c0.3-0.1,0.6,0,0.8,0.1c0.3,0.1,0.6,0.4,0.8,0.6c0.3,0.1,0.6,0.2,0.8,0.3c0.3,0.1,0.6,0.1,0.8,0.2
		c0.3,0.1,0.6,0.3,0.8,0.3c0.3,0,0.6-0.2,0.8-0.2c0.3,0,0.6,0.1,0.8,0.1c0.3,0,0.6-0.2,0.8-0.2c0.3,0,0.6,0,0.8,0
		c0.3,0,0.6,0,0.8-0.2c0.3-0.2,0.6-0.7,0.8-0.9c0.3-0.2,0.6-0.3,0.8-0.3c0.3,0,0.6,0.1,0.8,0.3c0.3,0.1,0.6,0.5,0.8,0.5
		c0.3,0,0.6-0.6,0.8-0.6c0.3-0.1,0.6,0,0.8,0.2c0.3,0.1,0.6,0.5,0.8,0.7c0.3,0.2,0.6,0.4,0.8,0.6c0.3,0.2,0.6,0.2,0.8,0.6
		c0.3,0.3,0.6,0.9,0.8,1.4c0.3,0.5,0.6,1.2,0.8,1.6c0.3,0.4,0.6,0.9,0.8,1c0.3,0.1,0.6,0.2,0.8-0.2c0.3-0.4,0.6-1.2,0.8-2
		c0.3-0.8,0.6-1.9,0.8-2.5c0.3-0.6,0.6-0.9,0.8-1.2c0.3-0.3,0.6-0.5,0.8-0.8c0.3-0.3,0.6-0.6,0.8-0.9c0.3-0.3,0.6-0.9,0.8-1
		c0.3-0.1,0.6,0.2,0.8,0.3c0.3,0.1,0.6,0.2,0.8,0.2c0.3,0,0.6-0.1,0.8-0.3c0.3-0.2,0.6-0.5,0.8-0.7c0.3-0.1,0.6-0.1,0.8-0.1
		c0.3,0,0.6,0.2,0.8,0.3c0.3,0.1,0.6,0.3,0.8,0.2c0.3-0.1,0.6-0.4,0.8-0.6c0.3-0.2,0.6-0.4,0.8-0.4c0.3,0,0.6,0.3,0.8,0.4
		c0.3,0.1,0.6,0.4,0.8,0.5c0.3,0.1,0.6,0,0.8,0c0.3,0,0.6,0,0.8,0c0.3-0.1,0.6-0.2,0.8-0.3c0.2,0,0.7-0.4,0.8,0
		c0.3,0.6,0.6,3.1,0.8,3.7c0.2,0.4,0.6-0.2,0.8-0.3c0.3-0.2,0.6-0.5,0.8-0.7c0.3-0.2,0.6-0.2,0.8-0.3c0.3-0.2,0.6-0.4,0.8-0.6
		c0.3-0.1,0.6-0.1,0.8-0.2c0.3-0.1,0.6-0.1,0.8-0.4c0.3-0.3,0.6-1.3,0.8-1.6c0.3-0.4,0.6-0.5,0.8-0.6c0.3,0,0.6,0.4,0.8,0.5
		c0.3,0.1,0.6,0.1,0.8-0.1c0.3-0.2,0.6-0.9,0.8-1.2c0.3-0.3,0.6-0.6,0.8-0.7c0.3-0.2,0.6-0.2,0.8-0.3c0.3,0,0.6,0.1,0.8,0.2
		c0.3,0.1,0.6,0.3,0.8,0.5c0.3,0.2,0.6,0.6,0.8,0.6c0.3,0,0.6-0.3,0.8-0.4c0.3-0.2,0.6-0.6,0.8-0.7c0.3-0.1,0.6,0.2,0.8,0.1
		c0.3,0,0.6-0.3,0.8-0.2c0.3,0.1,0.6,0.6,0.8,0.7c0.3,0.1,0.6-0.1,0.8-0.1c0.3,0.1,0.6,0.4,0.8,0.5c0.3,0.1,0.6,0,0.8,0
		c0.3,0,0.6-0.1,0.8,0c0.3,0.1,0.6,0.4,0.8,0.7c0.3,0.3,0.6,0.8,0.8,1.2c0.3,0.4,0.6,0.7,0.8,1.1c0.3,0.4,0.6,0.9,0.8,1.4
		c0.3,0.5,0.6,1.1,0.8,1.7c0.3,0.6,0.6,1.2,0.8,1.6c0.3,0.4,0.6,0.8,0.8,1c0.3,0.2,0.6,0.4,0.8,0.3c0.3-0.1,0.6-0.5,0.8-0.9
		c0.3-0.5,0.6-1.2,0.8-1.9c0.3-0.7,0.6-1.7,0.8-2.2c0.3-0.6,0.6-0.9,0.8-1.1c0.3-0.2,0.6,0,0.8-0.1c0.3-0.1,0.6-0.5,0.8-0.7
		c0.3-0.2,0.6-0.4,0.8-0.6c0.3-0.2,0.6-0.4,0.8-0.6c0.3-0.2,0.6-0.7,0.8-0.9c0.3-0.2,0.6-0.4,0.8-0.5c0.3,0,0.6,0.3,0.8,0.3
		c0.3,0,0.6-0.3,0.8-0.3c0.3,0,0.6,0.2,0.8,0.3c0.3,0.1,0.6,0,0.8,0.1c0.3,0.1,0.6,0.1,0.8,0.3c0.3,0.2,0.6,0.6,0.8,0.9
		c0.3,0.3,0.6,0.7,0.8,1c0.3,0.2,0.6,0.2,0.8,0.3c0.3,0.1,0.6,0,0.8,0.1c0.3,0.2,0.6,0.4,0.8,0.8c0.3,0.4,0.6,0.9,0.8,1.7
		c0.3,0.8,0.6,1.7,0.8,3c0.3,1.3,0.6,2.9,0.8,4.6c0.3,1.8,0.6,3.9,0.8,6.1c0.3,2.2,0.6,4.4,0.8,7.2c0.3,2.8,0.6,5.9,0.8,9.4
		c0.3,3.5,0.6,7.2,0.8,11.5c0.3,4.3,0.6,10,0.8,14.4c0.3,4.3,0.6,8.3,0.8,11.6c0.3,3.3,0.6,6.7,0.8,8.3c0.2,0.9,0.7,2,0.8,1.7
		c0.3-0.5,0.6-2.6,0.8-4.9c0.3-2.3,0.6-6,0.8-9.1c0.3-3,0.6-6.1,0.8-9.1c0.3-3,0.6-6.1,0.8-8.9c0.3-2.8,0.6-5.4,0.8-7.8
		c0.3-2.4,0.6-4.5,0.8-6.3c0.3-1.8,0.6-3.4,0.8-4.6c0.3-1.2,0.6-2,0.8-2.8c0.3-0.8,0.6-1.4,0.8-2c0.3-0.5,0.6-0.8,0.8-1.2
		c0.3-0.3,0.6-0.4,0.8-0.7c0.3-0.3,0.6-0.9,0.8-1.3c0.3-0.4,0.6-0.7,0.8-1c0.3-0.3,0.6-0.7,0.8-0.5c0.3,0.2,0.6,0.8,0.8,1.4
		c0.3,0.6,0.6,1.6,0.8,2.4c0.3,0.8,0.6,1.5,0.8,2.6c0.3,1.1,0.6,2.8,0.8,4c0.3,1.2,0.6,1.5,0.8,3c0.3,1.5,0.6,3.9,0.8,5.9
		c0.3,1.9,0.6,3.6,0.8,5.6c0.3,2.1,0.6,4.3,0.8,6.7c0.3,2.5,0.6,5,0.8,8.1c0.3,3,0.6,6.7,0.8,10.2c0.3,3.6,0.6,7.2,0.8,11.2
		c0.3,4,0.6,8.4,0.8,12.8c0.3,4.4,0.6,9.1,0.8,13.6c0.3,4.5,0.6,9.2,0.8,13.6c0.3,4.4,0.6,8.5,0.8,12.6c0.3,4.1,0.6,8.7,0.8,12
		c0.3,3.4,0.6,6,0.8,8.1c0.3,2.2,0.6,3.8,0.8,4.8c0.2,0.9,0.6,1.6,0.8,1.6c0.3,0,0.6-0.7,0.8-1.5c0.3-0.8,0.6-2.1,0.8-3.5
		c0.3-1.4,0.6-3,0.8-4.8c0.3-1.7,0.6-3.6,0.8-5.5c0.3-1.9,0.6-4,0.8-5.9c0.3-1.9,0.6-3.7,0.8-5.3c0.3-1.6,0.6-3,0.8-4.3
		c0.3-1.3,0.6-2.5,0.8-3.5c0.3-1,0.6-1.8,0.8-2.6c0.3-0.8,0.6-1.4,0.8-1.9c0.3-0.5,0.6-1,0.8-1.1c0.3-0.2,0.6-0.1,0.8,0.1
		c0.3,0.2,0.6,1,0.8,1.3c0.3,0.3,0.6,0,0.8,0.3c0.3,0.3,0.6,0.9,0.8,1.6c0.3,0.7,0.6,1.4,0.8,2.6c0.3,1.1,0.6,3.2,0.8,4.3
		c0.3,1.1,0.6,1.1,0.8,2.4c0.3,1.3,0.6,3.7,0.8,5.4c0.3,1.7,0.6,3.5,0.8,4.8c0.3,1.3,0.6,1.7,0.8,2.8c0.3,1.1,0.6,2.5,0.8,4
		c0.3,1.4,0.6,3.6,0.8,4.7c0.2,0.8,0.6,1,0.8,1.4c0.3,0.5,0.6,1,0.8,1.5c0.3,0.5,0.6,1,0.8,1.5c0.3,0.5,0.6,1.2,0.8,1.4
		c0.3,0.2,0.6,0.1,0.8-0.1c0.3-0.2,0.6-0.7,0.8-1.2c0.3-0.5,0.6-1.2,0.8-1.9c0.3-0.7,0.6-1.4,0.8-2.4c0.3-1,0.6-2.2,0.8-3.3
		c0.3-1.1,0.6-2.1,0.8-3.2c0.3-1.1,0.6-2.5,0.8-3.7c0.3-1.2,0.6-2.2,0.8-3.3c0.3-1.1,0.6-2.1,0.8-3.1c0.3-1,0.6-1.8,0.8-2.8
		c0.3-0.9,0.6-2.1,0.8-2.8c0.3-0.8,0.6-1.3,0.8-1.8c0.3-0.5,0.6-0.8,0.8-1.4c0.3-0.6,0.6-1.6,0.8-2.1c0.3-0.5,0.6-0.6,0.8-1.3
		c0.3-0.8,0.6-3,0.8-3.5c0.2-0.4,0.6,0,0.8,0.2c0.3,0.3,0.6,1.2,0.8,1.6c0.3,0.4,0.6,0.3,0.8,0.8c0.3,0.5,0.6,1.7,0.8,2.3
		c0.2,0.5,0.6,0.5,0.8,1.2c0.3,0.8,0.6,2.4,0.8,3.5c0.3,1.1,0.6,2.3,0.8,3c0.2,0.6,0.6,0.4,0.8,1.1c0.3,0.7,0.6,2.4,0.8,3.4
		c0.3,1,0.6,1.7,0.8,2.6"/>
</g>
<g>
	<defs>
		<rect id="SVGID_00000010989298213434963240000003573766491806147252_" x="-6" y="-0.5" width="340.1" height="259.5"/>
	</defs>
	<clipPath id="SVGID_00000135670012226457403900000015187178578039830187_">
		<use xlink:href="#SVGID_00000010989298213434963240000003573766491806147252_"  style="overflow:visible;"/>
	</clipPath>
	<g style="clip-path:url(#SVGID_00000135670012226457403900000015187178578039830187_);">
		<text transform="matrix(1 0 0 1 31.8198 217.1445)" class="st6 st7">0</text>
	</g>
</g>
<text transform="matrix(1 0 0 1 27.106 179.998)" class="st6 st7">20</text>
<rect x="-6" y="-0.5" class="st8" width="340.1" height="259.5"/>
<g>
	<defs>
		<rect id="SVGID_00000018210782363243194830000005275561796432241331_" x="-2.9" y="-0.5" width="340.1" height="259.5"/>
	</defs>
	<clipPath id="SVGID_00000087414258173286664460000006463243657425822364_">
		<use xlink:href="#SVGID_00000018210782363243194830000005275561796432241331_"  style="overflow:visible;"/>
	</clipPath>
	<g style="clip-path:url(#SVGID_00000087414258173286664460000006463243657425822364_);">
		<text transform="matrix(1 0 0 1 27.106 143.375)" class="st6 st7">40</text>
	</g>
</g>
<g>
	<defs>
		<rect id="SVGID_00000098922218542435449770000001906257309882372245_" x="-2.9" y="-0.5" width="340.1" height="259.5"/>
	</defs>
	<clipPath id="SVGID_00000179647188594241334010000004794694251640405672_">
		<use xlink:href="#SVGID_00000098922218542435449770000001906257309882372245_"  style="overflow:visible;"/>
	</clipPath>
	<g style="clip-path:url(#SVGID_00000179647188594241334010000004794694251640405672_);">
		<text transform="matrix(1 0 0 1 27.106 106.2305)" class="st6 st7">60</text>
	</g>
</g>
<g>
	<defs>
		<rect id="SVGID_00000173142010125537110090000008808352604665380746_" x="-2.9" y="-0.5" width="340.1" height="259.5"/>
	</defs>
	<clipPath id="SVGID_00000092418549840719574390000011282937403659227783_">
		<use xlink:href="#SVGID_00000173142010125537110090000008808352604665380746_"  style="overflow:visible;"/>
	</clipPath>
	<g style="clip-path:url(#SVGID_00000092418549840719574390000011282937403659227783_);">
		<text transform="matrix(1 0 0 1 27.106 69.084)" class="st6 st7">80</text>
	</g>
</g>
<g>
	<defs>
		<rect id="SVGID_00000116929502933902607170000014116870102176113815_" x="-2.9" y="-0.5" width="340.1" height="259.5"/>
	</defs>
	<clipPath id="SVGID_00000005951032083342185120000005073178878143104921_">
		<use xlink:href="#SVGID_00000116929502933902607170000014116870102176113815_"  style="overflow:visible;"/>
	</clipPath>
	<g style="clip-path:url(#SVGID_00000005951032083342185120000005073178878143104921_);">
		<text transform="matrix(1 0 0 1 22.4028 32.4619)" class="st6 st7">100</text>
	</g>
</g>
<g>
	<defs>
		<rect id="SVGID_00000073687759375288630900000004945542889379613119_" x="-6" y="-0.5" width="340.1" height="259.5"/>
	</defs>
	<clipPath id="SVGID_00000101816514509753219950000003815235842289807288_">
		<use xlink:href="#SVGID_00000073687759375288630900000004945542889379613119_"  style="overflow:visible;"/>
	</clipPath>
	<g style="clip-path:url(#SVGID_00000101816514509753219950000003815235842289807288_);">
		<text transform="matrix(1 0 0 1 37.3003 228.6543)" class="st6 st7">300</text>
	</g>
</g>
<g>
	<defs>
		<rect id="SVGID_00000149382928124563196390000006612091651983159996_" x="-6" y="-0.5" width="340.1" height="259.5"/>
	</defs>
	<clipPath id="SVGID_00000023262016881753307630000003441633269684610999_">
		<use xlink:href="#SVGID_00000149382928124563196390000006612091651983159996_"  style="overflow:visible;"/>
	</clipPath>
	<g style="clip-path:url(#SVGID_00000023262016881753307630000003441633269684610999_);">
		<text transform="matrix(1 0 0 1 78.9302 228.6543)" class="st6 st7">400</text>
	</g>
</g>
<g>
	<defs>
		<rect id="SVGID_00000018224907345892455250000001401108767618801593_" x="-6" y="-0.5" width="340.1" height="259.5"/>
	</defs>
	<clipPath id="SVGID_00000125574840722793095190000010216872364842122641_">
		<use xlink:href="#SVGID_00000018224907345892455250000001401108767618801593_"  style="overflow:visible;"/>
	</clipPath>
	<g style="clip-path:url(#SVGID_00000125574840722793095190000010216872364842122641_);">
		<text transform="matrix(1 0 0 1 120.5591 228.6543)" class="st6 st7">500</text>
	</g>
</g>
<g>
	<defs>
		<rect id="SVGID_00000069380080228311301610000003988058067488742016_" x="-6" y="-0.5" width="340.1" height="259.5"/>
	</defs>
	<clipPath id="SVGID_00000160158641768645058430000017887967830060237974_">
		<use xlink:href="#SVGID_00000069380080228311301610000003988058067488742016_"  style="overflow:visible;"/>
	</clipPath>
	<g style="clip-path:url(#SVGID_00000160158641768645058430000017887967830060237974_);">
		<text transform="matrix(1 0 0 1 162.189 228.6543)" class="st6 st7">600</text>
	</g>
</g>
<g>
	<defs>
		<rect id="SVGID_00000079455792623535411990000015435486130882117523_" x="-6" y="-0.5" width="340.1" height="259.5"/>
	</defs>
	<clipPath id="SVGID_00000076576832067446188240000003832806751881077654_">
		<use xlink:href="#SVGID_00000079455792623535411990000015435486130882117523_"  style="overflow:visible;"/>
	</clipPath>
	<g style="clip-path:url(#SVGID_00000076576832067446188240000003832806751881077654_);">
		<text transform="matrix(1 0 0 1 203.8193 228.6543)" class="st6 st7">700</text>
	</g>
</g>
<g>
	<defs>
		<rect id="SVGID_00000086658875095766260440000004565394818730496163_" x="-6" y="-0.5" width="340.1" height="259.5"/>
	</defs>
	<clipPath id="SVGID_00000079451186436245996830000016354078058797792642_">
		<use xlink:href="#SVGID_00000086658875095766260440000004565394818730496163_"  style="overflow:visible;"/>
	</clipPath>
	<g style="clip-path:url(#SVGID_00000079451186436245996830000016354078058797792642_);">
		<text transform="matrix(1 0 0 1 245.4492 228.6543)" class="st6 st7">800</text>
	</g>
</g>
<g>
	<defs>
		<rect id="SVGID_00000180325341525686489620000017404818211226403970_" x="-6" y="-0.5" width="340.1" height="259.5"/>
	</defs>
	<clipPath id="SVGID_00000142133805778475840340000011260843510876664724_">
		<use xlink:href="#SVGID_00000180325341525686489620000017404818211226403970_"  style="overflow:visible;"/>
	</clipPath>
	<g style="clip-path:url(#SVGID_00000142133805778475840340000011260843510876664724_);">
		<text transform="matrix(1 0 0 1 287.0791 228.6543)" class="st6 st7">900</text>
	</g>
</g>
<g>
	<defs>
		<rect id="SVGID_00000045592262417572707100000001413162662234927535_" x="-6" y="-0.5" width="340.1" height="259.5"/>
	</defs>
	<clipPath id="SVGID_00000170974707367311215650000017179332072598938282_">
		<use xlink:href="#SVGID_00000045592262417572707100000001413162662234927535_"  style="overflow:visible;"/>
	</clipPath>
	<g style="clip-path:url(#SVGID_00000170974707367311215650000017179332072598938282_);">
		<text transform="matrix(0 -1 1 0 18.0659 149.1309)" class="st6 st21">Reflection (%)</text>
	</g>
</g>
<g>
	<defs>
		<rect id="SVGID_00000150790121608461465150000005609404527791648426_" x="-6" y="-0.5" width="340.1" height="259.5"/>
	</defs>
	<clipPath id="SVGID_00000146478149960065896720000005284456330173844121_">
		<use xlink:href="#SVGID_00000150790121608461465150000005609404527791648426_"  style="overflow:visible;"/>
	</clipPath>
	<g style="clip-path:url(#SVGID_00000146478149960065896720000005284456330173844121_);">
		<text transform="matrix(1 0 0 1 136.6255 244.3506)" class="st6 st21">Wavelength (nm)</text>
	</g>
</g>
</svg>
