<?xml version="1.0" encoding="UTF-8"?>
<!DOCTYPE svg PUBLIC "-//W3C//DTD SVG 1.1//EN" "http://www.w3.org/Graphics/SVG/1.1/DTD/svg11.dtd">
<!--Generated by Origin-->
<svg xmlns="http://www.w3.org/2000/svg" xmlns:xlink="http://www.w3.org/1999/xlink" viewBox="0,0 1030,789" width="10.729167in" height="8.218750in">
	<svg xmlns="http://www.w3.org/2000/svg" xmlns:xlink="http://www.w3.org/1999/xlink" viewBox="0,0 6432.99,4923.97" width="1028.99" height="786.999" x="0.00012207" y="6.10351e-05" preserveAspectRatio="none">
		<polyline points="1085,4257 6026,4257" style="stroke: black;stroke-width: 13;stroke-linecap:square;stroke-linejoin:round" fill="none"/>
		<polyline points="1526,4257 1526,4223" style="stroke: black;stroke-width: 13;stroke-linecap:butt;stroke-linejoin:round" fill="none"/>
		<polyline points="2408,4257 2408,4223" style="stroke: black;stroke-width: 13;stroke-linecap:butt;stroke-linejoin:round" fill="none"/>
		<polyline points="3291,4257 3291,4223" style="stroke: black;stroke-width: 13;stroke-linecap:butt;stroke-linejoin:round" fill="none"/>
		<polyline points="4173,4257 4173,4223" style="stroke: black;stroke-width: 13;stroke-linecap:butt;stroke-linejoin:round" fill="none"/>
		<polyline points="5055,4257 5055,4223" style="stroke: black;stroke-width: 13;stroke-linecap:butt;stroke-linejoin:round" fill="none"/>
		<polyline points="5938,4257 5938,4223" style="stroke: black;stroke-width: 13;stroke-linecap:butt;stroke-linejoin:round" fill="none"/>
		<polyline points="1085,4257 1085,4188" style="stroke: black;stroke-width: 13;stroke-linecap:butt;stroke-linejoin:round" fill="none"/>
		<polyline points="1967,4257 1967,4188" style="stroke: black;stroke-width: 13;stroke-linecap:butt;stroke-linejoin:round" fill="none"/>
		<polyline points="2850,4257 2850,4188" style="stroke: black;stroke-width: 13;stroke-linecap:butt;stroke-linejoin:round" fill="none"/>
		<polyline points="3732,4257 3732,4188" style="stroke: black;stroke-width: 13;stroke-linecap:butt;stroke-linejoin:round" fill="none"/>
		<polyline points="4614,4257 4614,4188" style="stroke: black;stroke-width: 13;stroke-linecap:butt;stroke-linejoin:round" fill="none"/>
		<polyline points="5497,4257 5497,4188" style="stroke: black;stroke-width: 13;stroke-linecap:butt;stroke-linejoin:round" fill="none"/>
		<polyline points="1085,313 6026,313" style="stroke: black;stroke-width: 13;stroke-linecap:square;stroke-linejoin:round" fill="none"/>
		<polyline points="1526,313 1526,347" style="stroke: black;stroke-width: 13;stroke-linecap:butt;stroke-linejoin:round" fill="none"/>
		<polyline points="2408,313 2408,347" style="stroke: black;stroke-width: 13;stroke-linecap:butt;stroke-linejoin:round" fill="none"/>
		<polyline points="3291,313 3291,347" style="stroke: black;stroke-width: 13;stroke-linecap:butt;stroke-linejoin:round" fill="none"/>
		<polyline points="4173,313 4173,347" style="stroke: black;stroke-width: 13;stroke-linecap:butt;stroke-linejoin:round" fill="none"/>
		<polyline points="5055,313 5055,347" style="stroke: black;stroke-width: 13;stroke-linecap:butt;stroke-linejoin:round" fill="none"/>
		<polyline points="5938,313 5938,347" style="stroke: black;stroke-width: 13;stroke-linecap:butt;stroke-linejoin:round" fill="none"/>
		<polyline points="1085,313 1085,382" style="stroke: black;stroke-width: 13;stroke-linecap:butt;stroke-linejoin:round" fill="none"/>
		<polyline points="1967,313 1967,382" style="stroke: black;stroke-width: 13;stroke-linecap:butt;stroke-linejoin:round" fill="none"/>
		<polyline points="2850,313 2850,382" style="stroke: black;stroke-width: 13;stroke-linecap:butt;stroke-linejoin:round" fill="none"/>
		<polyline points="3732,313 3732,382" style="stroke: black;stroke-width: 13;stroke-linecap:butt;stroke-linejoin:round" fill="none"/>
		<polyline points="4614,313 4614,382" style="stroke: black;stroke-width: 13;stroke-linecap:butt;stroke-linejoin:round" fill="none"/>
		<polyline points="5497,313 5497,382" style="stroke: black;stroke-width: 13;stroke-linecap:butt;stroke-linejoin:round" fill="none"/>
		<polyline points="1085,4257 1085,313" style="stroke: black;stroke-width: 13;stroke-linecap:square;stroke-linejoin:round" fill="none"/>
		<polyline points="1085,4060 1119,4060" style="stroke: black;stroke-width: 13;stroke-linecap:butt;stroke-linejoin:round" fill="none"/>
		<polyline points="1085,3665 1119,3665" style="stroke: black;stroke-width: 13;stroke-linecap:butt;stroke-linejoin:round" fill="none"/>
		<polyline points="1085,3271 1119,3271" style="stroke: black;stroke-width: 13;stroke-linecap:butt;stroke-linejoin:round" fill="none"/>
		<polyline points="1085,2877 1119,2877" style="stroke: black;stroke-width: 13;stroke-linecap:butt;stroke-linejoin:round" fill="none"/>
		<polyline points="1085,2482 1119,2482" style="stroke: black;stroke-width: 13;stroke-linecap:butt;stroke-linejoin:round" fill="none"/>
		<polyline points="1085,2088 1119,2088" style="stroke: black;stroke-width: 13;stroke-linecap:butt;stroke-linejoin:round" fill="none"/>
		<polyline points="1085,1693 1119,1693" style="stroke: black;stroke-width: 13;stroke-linecap:butt;stroke-linejoin:round" fill="none"/>
		<polyline points="1085,1299 1119,1299" style="stroke: black;stroke-width: 13;stroke-linecap:butt;stroke-linejoin:round" fill="none"/>
		<polyline points="1085,905 1119,905" style="stroke: black;stroke-width: 13;stroke-linecap:butt;stroke-linejoin:round" fill="none"/>
		<polyline points="1085,510 1119,510" style="stroke: black;stroke-width: 13;stroke-linecap:butt;stroke-linejoin:round" fill="none"/>
		<polyline points="1085,4257 1154,4257" style="stroke: black;stroke-width: 13;stroke-linecap:butt;stroke-linejoin:round" fill="none"/>
		<polyline points="1085,3863 1154,3863" style="stroke: black;stroke-width: 13;stroke-linecap:butt;stroke-linejoin:round" fill="none"/>
		<polyline points="1085,3468 1154,3468" style="stroke: black;stroke-width: 13;stroke-linecap:butt;stroke-linejoin:round" fill="none"/>
		<polyline points="1085,3074 1154,3074" style="stroke: black;stroke-width: 13;stroke-linecap:butt;stroke-linejoin:round" fill="none"/>
		<polyline points="1085,2679 1154,2679" style="stroke: black;stroke-width: 13;stroke-linecap:butt;stroke-linejoin:round" fill="none"/>
		<polyline points="1085,2285 1154,2285" style="stroke: black;stroke-width: 13;stroke-linecap:butt;stroke-linejoin:round" fill="none"/>
		<polyline points="1085,1891 1154,1891" style="stroke: black;stroke-width: 13;stroke-linecap:butt;stroke-linejoin:round" fill="none"/>
		<polyline points="1085,1496 1154,1496" style="stroke: black;stroke-width: 13;stroke-linecap:butt;stroke-linejoin:round" fill="none"/>
		<polyline points="1085,1102 1154,1102" style="stroke: black;stroke-width: 13;stroke-linecap:butt;stroke-linejoin:round" fill="none"/>
		<polyline points="1085,707 1154,707" style="stroke: black;stroke-width: 13;stroke-linecap:butt;stroke-linejoin:round" fill="none"/>
		<polyline points="1085,313 1154,313" style="stroke: black;stroke-width: 13;stroke-linecap:butt;stroke-linejoin:round" fill="none"/>
		<polyline points="6026,4257 6026,313" style="stroke: black;stroke-width: 13;stroke-linecap:square;stroke-linejoin:round" fill="none"/>
		<polyline points="6026,4060 5992,4060" style="stroke: black;stroke-width: 13;stroke-linecap:butt;stroke-linejoin:round" fill="none"/>
		<polyline points="6026,3665 5992,3665" style="stroke: black;stroke-width: 13;stroke-linecap:butt;stroke-linejoin:round" fill="none"/>
		<polyline points="6026,3271 5992,3271" style="stroke: black;stroke-width: 13;stroke-linecap:butt;stroke-linejoin:round" fill="none"/>
		<polyline points="6026,2877 5992,2877" style="stroke: black;stroke-width: 13;stroke-linecap:butt;stroke-linejoin:round" fill="none"/>
		<polyline points="6026,2482 5992,2482" style="stroke: black;stroke-width: 13;stroke-linecap:butt;stroke-linejoin:round" fill="none"/>
		<polyline points="6026,2088 5992,2088" style="stroke: black;stroke-width: 13;stroke-linecap:butt;stroke-linejoin:round" fill="none"/>
		<polyline points="6026,1693 5992,1693" style="stroke: black;stroke-width: 13;stroke-linecap:butt;stroke-linejoin:round" fill="none"/>
		<polyline points="6026,1299 5992,1299" style="stroke: black;stroke-width: 13;stroke-linecap:butt;stroke-linejoin:round" fill="none"/>
		<polyline points="6026,905 5992,905" style="stroke: black;stroke-width: 13;stroke-linecap:butt;stroke-linejoin:round" fill="none"/>
		<polyline points="6026,510 5992,510" style="stroke: black;stroke-width: 13;stroke-linecap:butt;stroke-linejoin:round" fill="none"/>
		<polyline points="6026,4257 5957,4257" style="stroke: black;stroke-width: 13;stroke-linecap:butt;stroke-linejoin:round" fill="none"/>
		<polyline points="6026,3863 5957,3863" style="stroke: black;stroke-width: 13;stroke-linecap:butt;stroke-linejoin:round" fill="none"/>
		<polyline points="6026,3468 5957,3468" style="stroke: black;stroke-width: 13;stroke-linecap:butt;stroke-linejoin:round" fill="none"/>
		<polyline points="6026,3074 5957,3074" style="stroke: black;stroke-width: 13;stroke-linecap:butt;stroke-linejoin:round" fill="none"/>
		<polyline points="6026,2679 5957,2679" style="stroke: black;stroke-width: 13;stroke-linecap:butt;stroke-linejoin:round" fill="none"/>
		<polyline points="6026,2285 5957,2285" style="stroke: black;stroke-width: 13;stroke-linecap:butt;stroke-linejoin:round" fill="none"/>
		<polyline points="6026,1891 5957,1891" style="stroke: black;stroke-width: 13;stroke-linecap:butt;stroke-linejoin:round" fill="none"/>
		<polyline points="6026,1496 5957,1496" style="stroke: black;stroke-width: 13;stroke-linecap:butt;stroke-linejoin:round" fill="none"/>
		<polyline points="6026,1102 5957,1102" style="stroke: black;stroke-width: 13;stroke-linecap:butt;stroke-linejoin:round" fill="none"/>
		<polyline points="6026,707 5957,707" style="stroke: black;stroke-width: 13;stroke-linecap:butt;stroke-linejoin:round" fill="none"/>
		<polyline points="6026,313 5957,313" style="stroke: black;stroke-width: 13;stroke-linecap:butt;stroke-linejoin:round" fill="none"/>
		<text x="983" dominant-baseline="auto" y="4476" fill="black" font-family="Arial,'MS PGothic',SimSun" font-size="184" font-weight="400">
			<tspan x="983" style="font-kerning:none">25</tspan>
		</text>
		<text x="1865" dominant-baseline="auto" y="4476" fill="black" font-family="Arial,'MS PGothic',SimSun" font-size="184" font-weight="400">
			<tspan x="1865" style="font-kerning:none">30</tspan>
		</text>
		<text x="2748" dominant-baseline="auto" y="4476" fill="black" font-family="Arial,'MS PGothic',SimSun" font-size="184" font-weight="400">
			<tspan x="2748" style="font-kerning:none">35</tspan>
		</text>
		<text x="3630" dominant-baseline="auto" y="4476" fill="black" font-family="Arial,'MS PGothic',SimSun" font-size="184" font-weight="400">
			<tspan x="3630" style="font-kerning:none">40</tspan>
		</text>
		<text x="4512" dominant-baseline="auto" y="4476" fill="black" font-family="Arial,'MS PGothic',SimSun" font-size="184" font-weight="400">
			<tspan x="4512" style="font-kerning:none">45</tspan>
		</text>
		<text x="5395" dominant-baseline="auto" y="4476" fill="black" font-family="Arial,'MS PGothic',SimSun" font-size="184" font-weight="400">
			<tspan x="5395" style="font-kerning:none">50</tspan>
		</text>
		<text x="801" dominant-baseline="auto" y="4312" fill="black" font-family="Arial,'MS PGothic',SimSun" font-size="184" font-weight="400">
			<tspan x="801" style="font-kerning:none">−5</tspan>
		</text>
		<text x="908" dominant-baseline="auto" y="3918" fill="black" font-family="Arial,'MS PGothic',SimSun" font-size="184" font-weight="400">
			<tspan x="908" style="font-kerning:none">0</tspan>
		</text>
		<text x="908" dominant-baseline="auto" y="3523" fill="black" font-family="Arial,'MS PGothic',SimSun" font-size="184" font-weight="400">
			<tspan x="908" style="font-kerning:none">5</tspan>
		</text>
		<text x="806" dominant-baseline="auto" y="3129" fill="black" font-family="Arial,'MS PGothic',SimSun" font-size="184" font-weight="400">
			<tspan x="806" style="font-kerning:none">10</tspan>
		</text>
		<text x="806" dominant-baseline="auto" y="2734" fill="black" font-family="Arial,'MS PGothic',SimSun" font-size="184" font-weight="400">
			<tspan x="806" style="font-kerning:none">15</tspan>
		</text>
		<text x="806" dominant-baseline="auto" y="2340" fill="black" font-family="Arial,'MS PGothic',SimSun" font-size="184" font-weight="400">
			<tspan x="806" style="font-kerning:none">20</tspan>
		</text>
		<text x="806" dominant-baseline="auto" y="1946" fill="black" font-family="Arial,'MS PGothic',SimSun" font-size="184" font-weight="400">
			<tspan x="806" style="font-kerning:none">25</tspan>
		</text>
		<text x="806" dominant-baseline="auto" y="1551" fill="black" font-family="Arial,'MS PGothic',SimSun" font-size="184" font-weight="400">
			<tspan x="806" style="font-kerning:none">30</tspan>
		</text>
		<text x="806" dominant-baseline="auto" y="1157" fill="black" font-family="Arial,'MS PGothic',SimSun" font-size="184" font-weight="400">
			<tspan x="806" style="font-kerning:none">35</tspan>
		</text>
		<text x="806" dominant-baseline="auto" y="762" fill="black" font-family="Arial,'MS PGothic',SimSun" font-size="184" font-weight="400">
			<tspan x="806" style="font-kerning:none">40</tspan>
		</text>
		<text x="806" dominant-baseline="auto" y="368" fill="black" font-family="Arial,'MS PGothic',SimSun" font-size="184" font-weight="400">
			<tspan x="806" style="font-kerning:none">45</tspan>
		</text>
		<defs>
			<mask id="Cp_1">
				<rect x="1085" y="313" width="4942" height="3945" fill="white"/>
			</mask>
		</defs>
		<g mask="url(#Cp_1)">
			<rect x="0" y="0" width="6433" height="4924" visibility="hidden"/>
			<rect x="3488" y="3057" width="71" height="71" shape-rendering="crispEdges" fill="#006BAC" fill-rule="evenodd" style="stroke: #006BAC;stroke-width: 6;stroke-linecap:round;stroke-linejoin:round"/>
			<rect x="3298" y="2824" width="71" height="71" shape-rendering="crispEdges" fill="#006BAC" fill-rule="evenodd" style="stroke: #006BAC;stroke-width: 6;stroke-linecap:round;stroke-linejoin:round"/>
			<rect x="3954" y="2023" width="71" height="71" shape-rendering="crispEdges" fill="#006BAC" fill-rule="evenodd" style="stroke: #006BAC;stroke-width: 6;stroke-linecap:round;stroke-linejoin:round"/>
			<rect x="2801" y="2629" width="71" height="71" shape-rendering="crispEdges" fill="#006BAC" fill-rule="evenodd" style="stroke: #006BAC;stroke-width: 6;stroke-linecap:round;stroke-linejoin:round"/>
			<rect x="4450" y="2402" width="71" height="71" shape-rendering="crispEdges" fill="#006BAC" fill-rule="evenodd" style="stroke: #006BAC;stroke-width: 6;stroke-linecap:round;stroke-linejoin:round"/>
			<rect x="2416" y="3560" width="71" height="71" shape-rendering="crispEdges" fill="#006BAC" fill-rule="evenodd" style="stroke: #006BAC;stroke-width: 6;stroke-linecap:round;stroke-linejoin:round"/>
			<rect x="1999" y="2902" width="71" height="71" shape-rendering="crispEdges" fill="#006BAC" fill-rule="evenodd" style="stroke: #006BAC;stroke-width: 6;stroke-linecap:round;stroke-linejoin:round"/>
			<rect x="2365" y="3007" width="71" height="71" shape-rendering="crispEdges" fill="#006BAC" fill-rule="evenodd" style="stroke: #006BAC;stroke-width: 6;stroke-linecap:round;stroke-linejoin:round"/>
			<rect x="2270" y="2924" width="71" height="71" shape-rendering="crispEdges" fill="#006BAC" fill-rule="evenodd" style="stroke: #006BAC;stroke-width: 6;stroke-linecap:round;stroke-linejoin:round"/>
			<rect x="2860" y="2929" width="71" height="71" shape-rendering="crispEdges" fill="#006BAC" fill-rule="evenodd" style="stroke: #006BAC;stroke-width: 6;stroke-linecap:round;stroke-linejoin:round"/>
			<circle cx="4963" cy="2857" r="40" fill="#A67A13" fill-rule="evenodd" style="stroke: #A67A13;stroke-width: 6;stroke-linecap:round;stroke-linejoin:round"/>
			<circle cx="10201" cy="2857" r="40" fill="#A67A13" fill-rule="evenodd" style="stroke: #A67A13;stroke-width: 6;stroke-linecap:round;stroke-linejoin:round"/>
			<circle cx="3967" cy="3511" r="40" fill="#A67A13" fill-rule="evenodd" style="stroke: #A67A13;stroke-width: 6;stroke-linecap:round;stroke-linejoin:round"/>
			<circle cx="4751" cy="3123" r="40" fill="#A67A13" fill-rule="evenodd" style="stroke: #A67A13;stroke-width: 6;stroke-linecap:round;stroke-linejoin:round"/>
			<circle cx="4738" cy="2967" r="40" fill="#A67A13" fill-rule="evenodd" style="stroke: #A67A13;stroke-width: 6;stroke-linecap:round;stroke-linejoin:round"/>
			<circle cx="5296" cy="2632" r="40" fill="#A67A13" fill-rule="evenodd" style="stroke: #A67A13;stroke-width: 6;stroke-linecap:round;stroke-linejoin:round"/>
			<circle cx="4731" cy="3136" r="40" fill="#A67A13" fill-rule="evenodd" style="stroke: #A67A13;stroke-width: 6;stroke-linecap:round;stroke-linejoin:round"/>
			<circle cx="5126" cy="3133" r="40" fill="#A67A13" fill-rule="evenodd" style="stroke: #A67A13;stroke-width: 6;stroke-linecap:round;stroke-linejoin:round"/>
			<circle cx="5437" cy="2828" r="40" fill="#A67A13" fill-rule="evenodd" style="stroke: #A67A13;stroke-width: 6;stroke-linecap:round;stroke-linejoin:round"/>
			<circle cx="4863" cy="2514" r="40" fill="#A67A13" fill-rule="evenodd" style="stroke: #A67A13;stroke-width: 6;stroke-linecap:round;stroke-linejoin:round"/>
			<circle cx="5137" cy="2466" r="40" fill="#A67A13" fill-rule="evenodd" style="stroke: #A67A13;stroke-width: 6;stroke-linecap:round;stroke-linejoin:round"/>
			<circle cx="5302" cy="2813" r="40" fill="#A67A13" fill-rule="evenodd" style="stroke: #A67A13;stroke-width: 6;stroke-linecap:round;stroke-linejoin:round"/>
			<circle cx="4734" cy="-5021" r="40" fill="#A67A13" fill-rule="evenodd" style="stroke: #A67A13;stroke-width: 6;stroke-linecap:round;stroke-linejoin:round"/>
			<circle cx="4466" cy="5716" r="40" fill="#A67A13" fill-rule="evenodd" style="stroke: #A67A13;stroke-width: 6;stroke-linecap:round;stroke-linejoin:round"/>
			<circle cx="4482" cy="3024" r="40" fill="#A67A13" fill-rule="evenodd" style="stroke: #A67A13;stroke-width: 6;stroke-linecap:round;stroke-linejoin:round"/>
			<circle cx="4241" cy="3285" r="40" fill="#A67A13" fill-rule="evenodd" style="stroke: #A67A13;stroke-width: 6;stroke-linecap:round;stroke-linejoin:round"/>
			<circle cx="3626" cy="3324" r="40" fill="#A67A13" fill-rule="evenodd" style="stroke: #A67A13;stroke-width: 6;stroke-linecap:round;stroke-linejoin:round"/>
			<circle cx="4492" cy="-2248" r="40" fill="#A67A13" fill-rule="evenodd" style="stroke: #A67A13;stroke-width: 6;stroke-linecap:round;stroke-linejoin:round"/>
			<polyline points="10202,2037 10202,2817" style="stroke: #A67A13;stroke-width: 4;stroke-linecap:round;stroke-linejoin:round" fill="none"/>
			<polyline points="10168,2037 10236,2037" style="stroke: #A67A13;stroke-width: 4;stroke-linecap:round;stroke-linejoin:round" fill="none"/>
			<polyline points="10202,3678 10202,2899" style="stroke: #A67A13;stroke-width: 4;stroke-linecap:round;stroke-linejoin:round" fill="none"/>
			<polyline points="10168,3678 10236,3678" style="stroke: #A67A13;stroke-width: 4;stroke-linecap:round;stroke-linejoin:round" fill="none"/>
			<polyline points="3968,3240 3968,3471" style="stroke: #A67A13;stroke-width: 4;stroke-linecap:round;stroke-linejoin:round" fill="none"/>
			<polyline points="3934,3240 4002,3240" style="stroke: #A67A13;stroke-width: 4;stroke-linecap:round;stroke-linejoin:round" fill="none"/>
			<polyline points="3968,3783 3968,3553" style="stroke: #A67A13;stroke-width: 4;stroke-linecap:round;stroke-linejoin:round" fill="none"/>
			<polyline points="3934,3783 4002,3783" style="stroke: #A67A13;stroke-width: 4;stroke-linecap:round;stroke-linejoin:round" fill="none"/>
			<polyline points="4752,3015 4752,3083" style="stroke: #A67A13;stroke-width: 4;stroke-linecap:round;stroke-linejoin:round" fill="none"/>
			<polyline points="4718,3015 4786,3015" style="stroke: #A67A13;stroke-width: 4;stroke-linecap:round;stroke-linejoin:round" fill="none"/>
			<polyline points="4752,3232 4752,3165" style="stroke: #A67A13;stroke-width: 4;stroke-linecap:round;stroke-linejoin:round" fill="none"/>
			<polyline points="4718,3232 4786,3232" style="stroke: #A67A13;stroke-width: 4;stroke-linecap:round;stroke-linejoin:round" fill="none"/>
			<polyline points="4739,2742 4739,2927" style="stroke: #A67A13;stroke-width: 4;stroke-linecap:round;stroke-linejoin:round" fill="none"/>
			<polyline points="4705,2742 4773,2742" style="stroke: #A67A13;stroke-width: 4;stroke-linecap:round;stroke-linejoin:round" fill="none"/>
			<polyline points="4739,3193 4739,3009" style="stroke: #A67A13;stroke-width: 4;stroke-linecap:round;stroke-linejoin:round" fill="none"/>
			<polyline points="4705,3193 4773,3193" style="stroke: #A67A13;stroke-width: 4;stroke-linecap:round;stroke-linejoin:round" fill="none"/>
			<polyline points="5297,2286 5297,2592" style="stroke: #A67A13;stroke-width: 4;stroke-linecap:round;stroke-linejoin:round" fill="none"/>
			<polyline points="5263,2286 5331,2286" style="stroke: #A67A13;stroke-width: 4;stroke-linecap:round;stroke-linejoin:round" fill="none"/>
			<polyline points="5297,2980 5297,2674" style="stroke: #A67A13;stroke-width: 4;stroke-linecap:round;stroke-linejoin:round" fill="none"/>
			<polyline points="5263,2980 5331,2980" style="stroke: #A67A13;stroke-width: 4;stroke-linecap:round;stroke-linejoin:round" fill="none"/>
			<polyline points="4732,2899 4732,3096" style="stroke: #A67A13;stroke-width: 4;stroke-linecap:round;stroke-linejoin:round" fill="none"/>
			<polyline points="4698,2899 4766,2899" style="stroke: #A67A13;stroke-width: 4;stroke-linecap:round;stroke-linejoin:round" fill="none"/>
			<polyline points="4732,3376 4732,3178" style="stroke: #A67A13;stroke-width: 4;stroke-linecap:round;stroke-linejoin:round" fill="none"/>
			<polyline points="4698,3376 4766,3376" style="stroke: #A67A13;stroke-width: 4;stroke-linecap:round;stroke-linejoin:round" fill="none"/>
			<polyline points="5127,2886 5127,3093" style="stroke: #A67A13;stroke-width: 4;stroke-linecap:round;stroke-linejoin:round" fill="none"/>
			<polyline points="5093,2886 5161,2886" style="stroke: #A67A13;stroke-width: 4;stroke-linecap:round;stroke-linejoin:round" fill="none"/>
			<polyline points="5127,3382 5127,3175" style="stroke: #A67A13;stroke-width: 4;stroke-linecap:round;stroke-linejoin:round" fill="none"/>
			<polyline points="5093,3382 5161,3382" style="stroke: #A67A13;stroke-width: 4;stroke-linecap:round;stroke-linejoin:round" fill="none"/>
			<polyline points="5438,2583 5438,2788" style="stroke: #A67A13;stroke-width: 4;stroke-linecap:round;stroke-linejoin:round" fill="none"/>
			<polyline points="5404,2583 5472,2583" style="stroke: #A67A13;stroke-width: 4;stroke-linecap:round;stroke-linejoin:round" fill="none"/>
			<polyline points="5438,3074 5438,2870" style="stroke: #A67A13;stroke-width: 4;stroke-linecap:round;stroke-linejoin:round" fill="none"/>
			<polyline points="5404,3074 5472,3074" style="stroke: #A67A13;stroke-width: 4;stroke-linecap:round;stroke-linejoin:round" fill="none"/>
			<polyline points="4864,1815 4864,2474" style="stroke: #A67A13;stroke-width: 4;stroke-linecap:round;stroke-linejoin:round" fill="none"/>
			<polyline points="4830,1815 4898,1815" style="stroke: #A67A13;stroke-width: 4;stroke-linecap:round;stroke-linejoin:round" fill="none"/>
			<polyline points="4864,3215 4864,2556" style="stroke: #A67A13;stroke-width: 4;stroke-linecap:round;stroke-linejoin:round" fill="none"/>
			<polyline points="4830,3215 4898,3215" style="stroke: #A67A13;stroke-width: 4;stroke-linecap:round;stroke-linejoin:round" fill="none"/>
			<polyline points="5138,1972 5138,2426" style="stroke: #A67A13;stroke-width: 4;stroke-linecap:round;stroke-linejoin:round" fill="none"/>
			<polyline points="5104,1972 5172,1972" style="stroke: #A67A13;stroke-width: 4;stroke-linecap:round;stroke-linejoin:round" fill="none"/>
			<polyline points="5138,2961 5138,2508" style="stroke: #A67A13;stroke-width: 4;stroke-linecap:round;stroke-linejoin:round" fill="none"/>
			<polyline points="5104,2961 5172,2961" style="stroke: #A67A13;stroke-width: 4;stroke-linecap:round;stroke-linejoin:round" fill="none"/>
			<polyline points="5303,2471 5303,2773" style="stroke: #A67A13;stroke-width: 4;stroke-linecap:round;stroke-linejoin:round" fill="none"/>
			<polyline points="5269,2471 5337,2471" style="stroke: #A67A13;stroke-width: 4;stroke-linecap:round;stroke-linejoin:round" fill="none"/>
			<polyline points="5303,3158 5303,2855" style="stroke: #A67A13;stroke-width: 4;stroke-linecap:round;stroke-linejoin:round" fill="none"/>
			<polyline points="5269,3158 5337,3158" style="stroke: #A67A13;stroke-width: 4;stroke-linecap:round;stroke-linejoin:round" fill="none"/>
			<polyline points="4483,2641 4483,2984" style="stroke: #A67A13;stroke-width: 4;stroke-linecap:round;stroke-linejoin:round" fill="none"/>
			<polyline points="4449,2641 4517,2641" style="stroke: #A67A13;stroke-width: 4;stroke-linecap:round;stroke-linejoin:round" fill="none"/>
			<polyline points="4483,3409 4483,3066" style="stroke: #A67A13;stroke-width: 4;stroke-linecap:round;stroke-linejoin:round" fill="none"/>
			<polyline points="4449,3409 4517,3409" style="stroke: #A67A13;stroke-width: 4;stroke-linecap:round;stroke-linejoin:round" fill="none"/>
			<polyline points="4242,3028 4242,3245" style="stroke: #A67A13;stroke-width: 4;stroke-linecap:round;stroke-linejoin:round" fill="none"/>
			<polyline points="4208,3028 4276,3028" style="stroke: #A67A13;stroke-width: 4;stroke-linecap:round;stroke-linejoin:round" fill="none"/>
			<polyline points="4242,3544 4242,3327" style="stroke: #A67A13;stroke-width: 4;stroke-linecap:round;stroke-linejoin:round" fill="none"/>
			<polyline points="4208,3544 4276,3544" style="stroke: #A67A13;stroke-width: 4;stroke-linecap:round;stroke-linejoin:round" fill="none"/>
			<polyline points="3627,3117 3627,3284" style="stroke: #A67A13;stroke-width: 4;stroke-linecap:round;stroke-linejoin:round" fill="none"/>
			<polyline points="3593,3117 3661,3117" style="stroke: #A67A13;stroke-width: 4;stroke-linecap:round;stroke-linejoin:round" fill="none"/>
			<polyline points="3627,3533 3627,3366" style="stroke: #A67A13;stroke-width: 4;stroke-linecap:round;stroke-linejoin:round" fill="none"/>
			<polyline points="3593,3533 3661,3533" style="stroke: #A67A13;stroke-width: 4;stroke-linecap:round;stroke-linejoin:round" fill="none"/>
			<polyline points="3524,2896 3524,3056" style="stroke: #006BAC;stroke-width: 4;stroke-linecap:round;stroke-linejoin:round" fill="none"/>
			<polyline points="3490,2896 3558,2896" style="stroke: #006BAC;stroke-width: 4;stroke-linecap:round;stroke-linejoin:round" fill="none"/>
			<polyline points="3524,3290 3524,3130" style="stroke: #006BAC;stroke-width: 4;stroke-linecap:round;stroke-linejoin:round" fill="none"/>
			<polyline points="3490,3290 3558,3290" style="stroke: #006BAC;stroke-width: 4;stroke-linecap:round;stroke-linejoin:round" fill="none"/>
			<polyline points="3334,2554 3334,2823" style="stroke: #006BAC;stroke-width: 4;stroke-linecap:round;stroke-linejoin:round" fill="none"/>
			<polyline points="3300,2554 3368,2554" style="stroke: #006BAC;stroke-width: 4;stroke-linecap:round;stroke-linejoin:round" fill="none"/>
			<polyline points="3334,3165 3334,2897" style="stroke: #006BAC;stroke-width: 4;stroke-linecap:round;stroke-linejoin:round" fill="none"/>
			<polyline points="3300,3165 3368,3165" style="stroke: #006BAC;stroke-width: 4;stroke-linecap:round;stroke-linejoin:round" fill="none"/>
			<polyline points="3990,389 3990,2022" style="stroke: #006BAC;stroke-width: 4;stroke-linecap:round;stroke-linejoin:round" fill="none"/>
			<polyline points="3956,389 4024,389" style="stroke: #006BAC;stroke-width: 4;stroke-linecap:round;stroke-linejoin:round" fill="none"/>
			<polyline points="3990,3730 3990,2096" style="stroke: #006BAC;stroke-width: 4;stroke-linecap:round;stroke-linejoin:round" fill="none"/>
			<polyline points="3956,3730 4024,3730" style="stroke: #006BAC;stroke-width: 4;stroke-linecap:round;stroke-linejoin:round" fill="none"/>
			<polyline points="2837,1704 2837,2628" style="stroke: #006BAC;stroke-width: 4;stroke-linecap:round;stroke-linejoin:round" fill="none"/>
			<polyline points="2803,1704 2871,1704" style="stroke: #006BAC;stroke-width: 4;stroke-linecap:round;stroke-linejoin:round" fill="none"/>
			<polyline points="2837,3627 2837,2702" style="stroke: #006BAC;stroke-width: 4;stroke-linecap:round;stroke-linejoin:round" fill="none"/>
			<polyline points="2803,3627 2871,3627" style="stroke: #006BAC;stroke-width: 4;stroke-linecap:round;stroke-linejoin:round" fill="none"/>
			<polyline points="4486,982 4486,2401" style="stroke: #006BAC;stroke-width: 4;stroke-linecap:round;stroke-linejoin:round" fill="none"/>
			<polyline points="4452,982 4520,982" style="stroke: #006BAC;stroke-width: 4;stroke-linecap:round;stroke-linejoin:round" fill="none"/>
			<polyline points="4486,3895 4486,2475" style="stroke: #006BAC;stroke-width: 4;stroke-linecap:round;stroke-linejoin:round" fill="none"/>
			<polyline points="4452,3895 4520,3895" style="stroke: #006BAC;stroke-width: 4;stroke-linecap:round;stroke-linejoin:round" fill="none"/>
			<polyline points="2452,3514 2452,3559" style="stroke: #006BAC;stroke-width: 4;stroke-linecap:round;stroke-linejoin:round" fill="none"/>
			<polyline points="2418,3514 2486,3514" style="stroke: #006BAC;stroke-width: 4;stroke-linecap:round;stroke-linejoin:round" fill="none"/>
			<polyline points="2452,3678 2452,3633" style="stroke: #006BAC;stroke-width: 4;stroke-linecap:round;stroke-linejoin:round" fill="none"/>
			<polyline points="2418,3678 2486,3678" style="stroke: #006BAC;stroke-width: 4;stroke-linecap:round;stroke-linejoin:round" fill="none"/>
			<polyline points="2035,2835 2035,2901" style="stroke: #006BAC;stroke-width: 4;stroke-linecap:round;stroke-linejoin:round" fill="none"/>
			<polyline points="2001,2835 2069,2835" style="stroke: #006BAC;stroke-width: 4;stroke-linecap:round;stroke-linejoin:round" fill="none"/>
			<polyline points="2035,3042 2035,2975" style="stroke: #006BAC;stroke-width: 4;stroke-linecap:round;stroke-linejoin:round" fill="none"/>
			<polyline points="2001,3042 2069,3042" style="stroke: #006BAC;stroke-width: 4;stroke-linecap:round;stroke-linejoin:round" fill="none"/>
			<polyline points="2401,2927 2401,3006" style="stroke: #006BAC;stroke-width: 4;stroke-linecap:round;stroke-linejoin:round" fill="none"/>
			<polyline points="2367,2927 2435,2927" style="stroke: #006BAC;stroke-width: 4;stroke-linecap:round;stroke-linejoin:round" fill="none"/>
			<polyline points="2401,3159 2401,3080" style="stroke: #006BAC;stroke-width: 4;stroke-linecap:round;stroke-linejoin:round" fill="none"/>
			<polyline points="2367,3159 2435,3159" style="stroke: #006BAC;stroke-width: 4;stroke-linecap:round;stroke-linejoin:round" fill="none"/>
			<polyline points="2306,2820 2306,2923" style="stroke: #006BAC;stroke-width: 4;stroke-linecap:round;stroke-linejoin:round" fill="none"/>
			<polyline points="2272,2820 2340,2820" style="stroke: #006BAC;stroke-width: 4;stroke-linecap:round;stroke-linejoin:round" fill="none"/>
			<polyline points="2306,3100 2306,2997" style="stroke: #006BAC;stroke-width: 4;stroke-linecap:round;stroke-linejoin:round" fill="none"/>
			<polyline points="2272,3100 2340,3100" style="stroke: #006BAC;stroke-width: 4;stroke-linecap:round;stroke-linejoin:round" fill="none"/>
			<polyline points="2896,2841 2896,2928" style="stroke: #006BAC;stroke-width: 4;stroke-linecap:round;stroke-linejoin:round" fill="none"/>
			<polyline points="2862,2841 2930,2841" style="stroke: #006BAC;stroke-width: 4;stroke-linecap:round;stroke-linejoin:round" fill="none"/>
			<polyline points="2896,3090 2896,3002" style="stroke: #006BAC;stroke-width: 4;stroke-linecap:round;stroke-linejoin:round" fill="none"/>
			<polyline points="2862,3090 2930,3090" style="stroke: #006BAC;stroke-width: 4;stroke-linecap:round;stroke-linejoin:round" fill="none"/>
		</g>
		<polygon points="1171,347 3497,347 3497,1109 1171,1109" shape-rendering="crispEdges" fill="white" fill-rule="evenodd" style="stroke: black;stroke-width: 4;stroke-linecap:square;stroke-linejoin:miter;stroke-miterlimit:10"/>
		<rect x="1323" y="415" width="71" height="71" shape-rendering="crispEdges" fill="#006BAC" fill-rule="evenodd" style="stroke: #006BAC;stroke-width: 6;stroke-linecap:round;stroke-linejoin:round"/>
		<text x="1527" dominant-baseline="auto" y="502" fill="black" font-family="Arial,'MS PGothic',SimSun" font-size="150" font-weight="400">
			<tspan x="1527" style="white-space:pre;font-kerning:none" xml:space="preserve"> 100 nm film</tspan>
		</text>
		<circle cx="1358" cy="635" r="40" fill="#A67A13" fill-rule="evenodd" style="stroke: #A67A13;stroke-width: 6;stroke-linecap:round;stroke-linejoin:round"/>
		<text x="1527" dominant-baseline="auto" y="687" fill="black" font-family="Arial,'MS PGothic',SimSun" font-size="150" font-weight="400">
			<tspan x="1527" style="white-space:pre;font-kerning:none" xml:space="preserve"> 50 nm film</tspan>
		</text>
		<text x="1527" dominant-baseline="auto" y="872" fill="black" font-family="Arial,'MS PGothic',SimSun" font-size="150" font-weight="400">
			<tspan x="1527" style="white-space:pre;font-kerning:none" xml:space="preserve"> fit to 100nm film, y=0.26(3)*x</tspan>
		</text>
		<text x="1527" dominant-baseline="auto" y="1057" fill="black" font-family="Arial,'MS PGothic',SimSun" font-size="150" font-weight="400">
			<tspan x="1527" style="white-space:pre;font-kerning:none" xml:space="preserve"> fit to 50nm film, y=0.22(1)*x</tspan>
		</text>
		<text x="438" dominant-baseline="auto" y="4135" fill="black" font-family="Arial,'MS PGothic',SimSun" font-size="233" font-weight="400" transform="rotate(270 438 4135)">
			<tspan x="438" style="white-space:pre;font-kerning:none" xml:space="preserve">Ratio of CD of on-resonance peak</tspan>
		</text>
		<text x="733" dominant-baseline="auto" y="3500" fill="black" font-family="Arial,'MS PGothic',SimSun" font-size="233" font-weight="400" transform="rotate(270 733 3500)">
			<tspan x="733" style="white-space:pre;font-kerning:none" xml:space="preserve">to off-resonance peak</tspan>
		</text>
		<text x="3146" dominant-baseline="auto" y="4821" fill="black" font-family="Arial,'MS PGothic',SimSun" font-size="233" font-weight="400">
			<tspan x="3146" style="font-kerning:none">Finesse</tspan>
		</text>
		<polyline points="2032,3243 4484,2924" style="stroke: blue;stroke-width: 25;stroke-linecap:butt;stroke-linejoin:round" fill="none"/>
		<polyline points="1234,840 1478,840" style="stroke: blue;stroke-width: 25;stroke-linecap:butt;stroke-linejoin:round" fill="none"/>
		<polyline points="1864,3419 5634,2957" style="stroke: #800000;stroke-width: 25;stroke-linecap:butt;stroke-linejoin:round" fill="none"/>
		<polyline points="1235,1017 1479,1017" style="stroke: #800000;stroke-width: 25;stroke-linecap:butt;stroke-linejoin:round" fill="none"/>
	</svg>
</svg>

